<svg xmlns="http://www.w3.org/2000/svg" width="128.703" height="26" viewBox="0 0 128.703 26"><defs><style>.a{fill:#f63b2f;}.b{fill:#f6a500;fill-rule:evenodd;}</style></defs><g transform="translate(-198.101 -242.184)"><path class="a" d="M201.422,245.06h10.072l-.66,3.671h-6.487l-.7,3.9h5.32l-.614,3.389H203l-1.3,7.136H198.1Z" transform="translate(0 1.077)"/><path class="a" d="M210.254,245.06h3.606L211.2,259.484h7.059l-.66,3.67H206.933Z" transform="translate(1.999 1.077)"/><path class="a" d="M223.63,245.06H226.9l2.024,18.094h-3.694L224.9,259.1h-4.442l-1.781,4.052h-3.716Zm1.208,11.162-.438-6.4-2.859,6.4Z" transform="translate(5.155 1.077)"/><path class="a" d="M241.813,245.06h3.606l-1.3,7.008h5.652l1.3-7.008h3.606l-3.321,18.094H247.75l1.363-7.416h-5.652l-1.363,7.416h-3.606Z" transform="translate(12.717 1.077)"/><path class="a" d="M259.171,263.366a9.293,9.293,0,0,1-3.234-.584,8.011,8.011,0,0,1-2.725-1.652l2.243-3.634a1.83,1.83,0,0,0,.429.483,5.669,5.669,0,0,0,.989.712,7.907,7.907,0,0,0,1.4.635,4.911,4.911,0,0,0,1.648.279,2.053,2.053,0,0,0,1.5-.445,1.573,1.573,0,0,0,.44-1.156,1.1,1.1,0,0,0-.242-.724,2.365,2.365,0,0,0-.671-.534,7.419,7.419,0,0,0-.99-.458c-.374-.145-.774-.3-1.2-.47a6.371,6.371,0,0,1-2.365-1.549,3.507,3.507,0,0,1-.779-2.389,7.183,7.183,0,0,1,.572-2.925,6.531,6.531,0,0,1,1.508-2.172,6.61,6.61,0,0,1,2.141-1.349,6.825,6.825,0,0,1,2.486-.47,6.218,6.218,0,0,1,1.516.18,8.234,8.234,0,0,1,1.365.458,7.9,7.9,0,0,1,1.177.634q.538.357.979.712l-2.2,3.457a1.7,1.7,0,0,0-.362-.381,6.032,6.032,0,0,0-.826-.583,6.346,6.346,0,0,0-1.144-.534,3.777,3.777,0,0,0-1.3-.23,2.066,2.066,0,0,0-1.44.47,1.68,1.68,0,0,0-.517,1.309,1.192,1.192,0,0,0,.682,1.107,15.159,15.159,0,0,0,1.935.824,12.145,12.145,0,0,1,1.528.674,4.753,4.753,0,0,1,1.187.878,3.46,3.46,0,0,1,.759,1.195,4.523,4.523,0,0,1,.264,1.625,7.115,7.115,0,0,1-.6,3.063,5.758,5.758,0,0,1-1.559,2.046,6.183,6.183,0,0,1-2.177,1.144A8.514,8.514,0,0,1,259.171,263.366Z" transform="translate(20.503 1.041)"/><path class="a" d="M270.756,245.06h3.277l2.023,18.094h-3.694l-.33-4.052H267.59l-1.78,4.052h-3.718Zm1.21,11.162-.438-6.4-2.859,6.4Z" transform="translate(23.957 1.077)"/><path class="a" d="M276.645,245.06h3.606l-2.661,14.424h7.059l-.66,3.67H273.324Z" transform="translate(27.507 1.077)"/><path class="a" d="M285.653,245.06h10.271l-.682,3.671h-6.665l-.638,3.517h5.718l-.616,3.389h-5.717l-.726,3.847h6.861l-.66,3.67H282.332Z" transform="translate(30.88 1.077)"/><path class="b" d="M235.17,252.3,241,254.353a.635.635,0,0,1,.366.776.651.651,0,0,1-.109.216l-11.471,12.679a.56.56,0,0,1-.9-.637l3.716-9.841-5.374-1.486a.593.593,0,0,1-.346-.726.582.582,0,0,1,.155-.264L238.5,242.38a.478.478,0,0,1,.722-.059.61.61,0,0,1,.118.7Z" transform="translate(8.967 0)"/></g></svg>